<?xml version="1.0" encoding="iso-8859-1"?>
<!-- Generator: Adobe Illustrator 16.0.0, SVG Export Plug-In . SVG Version: 6.00 Build 0)  -->
<!DOCTYPE svg PUBLIC "-//W3C//DTD SVG 1.1//EN" "http://www.w3.org/Graphics/SVG/1.1/DTD/svg11.dtd">
<svg version="1.1" id="Capa_1" xmlns="http://www.w3.org/2000/svg" xmlns:xlink="http://www.w3.org/1999/xlink" x="0px" y="0px"
	 width="110.847px" height="110.846px" viewBox="0 0 110.847 110.846" style="enable-background:new 0 0 110.847 110.846;"
	 xml:space="preserve">
<g>
	<path d="M89.812,33.452c3.428-0.026,6.308-2.96,6.229-6.35c-0.079-3.404-2.872-6.094-6.307-6.075
		c-3.425,0.02-6.216,2.771-6.236,6.15C83.48,30.572,86.402,33.477,89.812,33.452z M88.537,24.359c0.974,0.06,1.584,0.53,1.619,1.552
		c0.036,1.015-0.532,1.609-1.504,1.662c-1.062,0.058-1.716-0.572-1.721-1.613C86.927,24.996,87.53,24.431,88.537,24.359z
		 M74.978,30.435c3.444,0.019,6.267-2.823,6.247-6.291c-0.019-3.432-2.741-6.13-6.194-6.14c-3.504-0.008-6.31,2.776-6.279,6.238
		C68.778,27.605,71.606,30.416,74.978,30.435z M73.529,21.206c0.973,0.02,1.516,0.628,1.614,1.561
		c-0.075,1.04-0.577,1.652-1.583,1.677c-1.094,0.028-1.699-0.646-1.681-1.669C71.9,21.817,72.544,21.187,73.529,21.206z
		 M62.814,44.172c0.256-0.751,0.797-1.247,1.457-1.638c0.526-0.312,1.104-0.448,1.711-0.482c0.439-0.022,0.797,0.153,0.971,0.558
		c0.148,0.339,0.062,0.677-0.188,0.969c-1.491,1.738-0.264,3.35,0.334,4.912c0.509,1.328,1.729,1.701,2.871,1.551
		c0.429-0.045,0.625-0.083,0.823-0.084c0.276-0.002,0.638-0.155,0.753,0.246c0.109,0.378-0.25,0.503-0.478,0.656
		c-1.637,1.094-3.924,0.765-5.308-0.764c-0.999-1.106-1.476-2.463-1.807-3.882c-0.077-0.338-0.064-0.734-0.247-0.998
		C63.454,44.848,62.514,45.056,62.814,44.172z M80.146,32.782c3.477,0.825,6.375,3.283,6.897,5.985
		c-4.34-4.634-9.44-6.492-15.652-4.507C74.12,32.363,77.07,32.052,80.146,32.782z M77.516,38.292c0.042,1.101-0.963,2.09-2.114,2.08
		c-1.133-0.011-2.168-1.038-2.118-2.106c0.05-1.056,0.989-1.879,2.142-1.879C76.581,36.388,77.475,37.203,77.516,38.292z
		 M82.469,39.366c-0.046,1.14-0.76,1.67-1.859,1.828c-0.984,0.033-1.999-0.862-1.939-1.844c0.065-1.11,0.725-1.715,1.839-1.771
		C81.632,37.525,82.511,38.309,82.469,39.366z M16.201,25.08c-1.687,1.172-4.634,1.061-7.058-0.183
		c-2.209-1.133-3.836-2.75-4.125-5.35C7.542,23.763,11.274,25.448,16.201,25.08z M46.536,11.06c-0.5,1.075-1.021,2.138-1.534,3.206
		c-0.093-0.021-0.185-0.042-0.276-0.062c0.38-1.168,0.755-2.34,1.145-3.504c0.109-0.32,0.245-0.766,0.699-0.529
		C47.03,10.409,46.669,10.776,46.536,11.06z M102.945,22.415c-0.988-0.113-1.133-0.271-0.984-1.286
		c0.773-5.219,0.42-10.065-4.997-12.919c-0.128-0.068-0.229-0.191-0.33-0.3c-4.166-4.428-9.395-6.666-15.342-7.339
		c-10.331-1.166-21.43,4.026-25.047,14.598c-0.338,0.987-0.63,0.671-1.205,0.306c-1.9-1.207-3.927-1.703-6.342-0.799
		c0.057-0.399,0.079-0.584,0.107-0.769c0.462-3.008,0.946-6.015,1.379-9.028c0.216-1.513-0.821-2.167-2.021-2.56
		c-1.131-0.371-2.011-0.202-2.767,1.001c-1.513,2.41-3.348,4.595-5.41,6.579c-0.469,0.454-0.829,0.676-1.532,0.368
		c-1.356-0.593-2.808-0.619-4.268-0.354c-4.948,0.891-8.807,3.448-11.435,7.712c-0.667,1.083-1.382,1.349-2.533,1.304
		c-4.138-0.166-7.957-1.357-11.485-3.477c-1.354-0.811-3.151-1.003-3.872-2.742c-0.153-0.37-0.616-0.276-0.955-0.213
		c-0.785,0.149-1.573,0.289-2.342,0.501c-1.82,0.504-2.018,1.291-0.77,2.758c0.392,0.459,1.034,0.697,0.978,1.551
		c-0.463,7.078,3.113,11.631,9.274,14.433c4.417,2.007,9.102,2.6,13.912,2.102c0.495-0.051,6.746-0.863,8.32-0.068
		c2.209,1.118,4.742,0.423,7.188-0.25c0.619-0.17,2.078-1.019,1.992-1.09c1.14-0.888,1.97-1.993,2.445-3.365
		c0.512,0.509,0.475,1.158,0.651,1.711c0.718,2.268,2.153,3.786,4.465,4.365c0.77,0.192,1.114,0.373,0.797,1.24
		c-0.197,0.543-0.143,1.18-0.208,1.773c-0.054,0.479,0.352,2.133,0.959,3.714c-0.922-1.104-2.101-2.053-3.549-2.848
		c-1.707-0.937-3.187-2.308-4.713-3.555c-0.859-0.702-1.637-0.848-2.758-0.539c-2.485,0.684-5.174,1.427-7.561,0.218
		c-1.711-0.864-3.075-0.355-4.613-0.106c-0.927,0.15-0.911,0.619-0.49,1.269c0.907,1.402,1.867,2.759,3.021,3.976
		c5.279,5.562,11.777,9.494,18.147,13.6c0.915,0.59,1.224,0.235,1.408-0.681c0.407-2.034,0.956-4.03,1.743-5.957
		c0.051-0.125,0.241-0.334,0.461-0.564c-0.005,0.014-0.01,0.029-0.016,0.043c0.169-0.059,0.4-0.112,0.722-0.155
		c0.648-0.093,0.962,0.466,1.137,0.762l0.088,0.145c1.261,1.92,2.991,3.582,5.288,5.081c0.496,0.321,0.883,0.74,1.183,1.279
		c1.45,2.625,3.663,3.652,6.762,3.146c0.866-0.144,1.727-0.146,2.702-0.011c5.853,0.794,11.45,0.226,16.634-1.698
		c2.115-0.785,3.947-2.004,5.445-3.625c0.22-0.238,3.062-3.977,3.446-8.791c0.075-0.834,0.373-1.091,1.145-1.168
		c0.938-0.095,1.889-0.241,2.795-0.505c1.958-0.572,3.396-1.815,3.82-3.84c0.439-2.079,1.246-3.988,2.142-5.888
		c0.511-1.082,0.929-2.202,1.106-3.404C107.47,25.323,105.657,22.727,102.945,22.415z M47.451,3.476
		c0.842,0.125,1.558,0.423,1.473,1.655c-0.563,0.637,0.417,2.232-1.251,2.447c-0.869,0.113-2.556-1.031-2.516-1.546
		C45.192,5.58,47.086,3.421,47.451,3.476z M23.353,20.652c2.491-5.182,6.615-8.246,12.258-9.274
		c0.813-0.148,1.349-0.069,2.434,0.251c-0.36,0.435-0.583,0.887-1.062,0.924c-0.489,0.039-0.954,0.058-0.938,0.673
		c0.014,0.551,0.537,0.639,0.936,0.836c1.437,0.702,2.852,1.449,3.995,2.602c0.566,0.572,1.061,1.191,1.126,2.049
		c0.119,1.596-0.832,2.488-2.38,2.104c-2.231-0.55-4.018-1.94-5.85-3.238c-0.464-0.331-0.951-1.035-1.542-0.543
		c-0.697,0.58,0.019,1.161,0.316,1.692c0.95,1.701,1.849,3.417,2.308,5.333c0.215,0.894,0.289,1.797,0.069,2.67
		c-0.434,1.722-1.879,2.126-3.17,0.92c-1.189-1.112-1.917-2.542-2.623-3.978c-0.308-0.625-0.573-1.272-0.832-1.919
		c-0.179-0.454-0.406-0.835-0.969-0.704c-0.526,0.123-0.462,0.584-0.454,0.979c0.034,1.449,0.109,2.902-0.262,4.324
		c-0.299,1.145-0.443,2.489-2.051,2.517c-1.194,0.021-2.155-1.115-2.349-2.698C22.077,24.231,22.521,22.385,23.353,20.652z
		 M1.775,14.879c-0.354-0.444-0.016-0.638,0.332-0.725c0.633-0.157,1.283-0.251,1.927-0.373c-0.48,0.503-1.025,0.795-1.438,1.269
		C2.247,15.454,1.994,15.157,1.775,14.879z M41.104,31.628c-2.498,1.183-5.14,1.26-7.861,0.691c3.84-1.648,7.409-3.655,10.332-6.7
		C44.377,28.015,43.375,30.555,41.104,31.628z M46.547,16.647c-1.283,1.403-2.055,3.112-2.247,4.973
		c-0.125,1.205-0.67,2.055-1.426,2.864c-4.546,4.865-10.321,7.236-16.777,8.114c-5.466,0.744-10.794,0.126-15.722-2.468
		C5.484,27.556,2.619,23.623,2.9,17.84c0.112-2.328,1.309-3.116,3.504-2.234c0.875,0.352,1.686,0.864,2.516,1.322
		c3.515,1.938,7.285,3.002,11.287,3.15c1.165,0.042,1.169,0.455,0.858,1.353c-0.702,2.025-0.909,4.104-0.235,6.173
		c0.459,1.408,1.404,2.414,2.89,2.788c1.854,0.465,3.212-0.248,4.001-1.997c0.39-0.869,0.392-1.828,0.742-3.023
		c0.939,1.169,1.685,2.153,2.489,3.085c0.863,1.001,2.032,1.418,3.243,0.939c1.281-0.505,2.002-1.58,2.117-3.022
		c0.148-1.851-0.312-3.563-1.057-5.227c-0.118-0.262-0.333-0.574-0.057-0.82c0.284-0.252,0.562,0.021,0.802,0.163
		c1.121,0.662,2.254,1.27,3.55,1.546c2.45,0.521,4.305-1.411,3.705-3.868c-0.329-1.344-1.188-2.295-2.229-3.1
		c-0.67-0.518-1.398-0.964-2.126-1.399c-0.584-0.348-0.662-0.67-0.115-1.122c1.74-1.436,3.333-3.024,4.743-4.785
		c0.447-0.558,0.858-0.548,1.379-0.114c0.787,0.656,1.715,1.034,2.73,1.12c0.724,0.062,0.76,0.415,0.651,1.014
		c-0.294,1.616-0.521,3.247-0.806,4.868C47.354,15.391,47.084,16.06,46.547,16.647z M52.192,30.643
		c0.19-1.974,0.458-3.591,0.384-5.232c-0.049-1.062-0.255-2.074-0.574-3.077c-0.142-0.45-0.327-0.85-0.876-0.887
		c-0.498-0.033-0.709,0.331-0.874,0.697c-0.943,2.067-1.179,4.206-0.572,6.409c0.073,0.264,0.19,0.632,0.572,0.582
		c0.345-0.045,0.436-0.375,0.473-0.676c0.158-1.282-0.063-2.556-0.248-3.944c1.362,1.098,1.659,4.421,0.599,5.489
		c-0.768,0.771-1.442,0.482-2.013-0.267c-1.469-1.93-1.017-7.392,0.735-9.027c1.002-0.937,2-0.886,2.837,0.117
		C54.034,22.5,54.141,28.762,52.192,30.643z M93.312,36.279c-0.717,1.254-0.714,1.265,0.727,1.442
		c0.604,0.076,0.455,0.562,0.477,0.885c0.331,5.069-1.196,9.378-5.374,12.485c-4.198,3.124-9.088,4.209-14.195,4.524
		c-1.195,0.074-2.399,0.011-3.938,0.011c1.134-0.632,1.836-1.235,1.208-2.272c-0.627-1.036-1.493-0.697-2.345-0.229
		c-1.049,0.579-2.117,1.104-3.298,1.387c-3.116,0.746-5.842-1.417-5.544-4.606c0.123-1.342-0.642-1.956-1.251-2.9
		c-1.315-2.038-1.831-4.416-1.625-6.875c0.316-3.78,2.225-6.683,5.189-8.903c0.86-0.644,1.021-1.258,0.854-2.273
		c-0.774-4.614-0.469-9.151,1.282-13.537c0.538-1.356,1.265-2.605,2.223-3.708c2.748-3.165,5.577-3.756,9.346-1.932
		c2.708,1.311,4.99,3.151,6.612,5.702c0.684,1.077,1.152,1.293,2.106,0.25c2.198-2.398,5.155-3.172,8.252-3.325
		c1.934-0.095,3.272,1.105,4.139,2.755c1.441,2.75,1.514,5.644,0.736,8.592C97.712,28.23,95.585,32.288,93.312,36.279z
		 M101.474,32.432c-0.119,1.754-0.571,3.455-1.97,4.714c-0.793,0.718-1.549,0.711-2.109-0.246c-0.752-1.277,0.394-4.412,1.909-5.154
		c-0.362,1.231-0.729,2.396-1.043,3.573c-0.085,0.313-0.201,0.777,0.171,0.946c0.431,0.192,0.581-0.271,0.739-0.559
		c1.124-2.053,1.299-4.271,1.105-6.547c-0.024-0.306-0.147-0.621-0.472-0.697c-0.46-0.109-0.566,0.312-0.724,0.605
		c-0.515,0.973,1.292-2.631,1.137-2.318c-0.144,0.288-0.238,0.589,0.042,0.82C101.881,28.887,101.591,30.722,101.474,32.432z
		 M70.471,85.402c-7.567,0.165-16.043-7.816-19.317-16.215c-1.025,4.297-1.412,8.201-0.789,12.125
		c0.049,0.307,0.122,0.594,0.199,0.877c-0.498-0.512-1.113-0.689-1.424-0.779c-1.617-0.453-2.975-0.707-4.28-0.798
		c-0.287-0.021-0.57-0.03-0.849-0.03c-2.819,0-5.071,1.077-6.693,3.202c-1.184,1.55-1.977,3.101-2.421,4.737
		c-0.239,0.873-0.537,1.961,0.104,2.801c0.62,0.812,1.687,0.812,2.323,0.812c0.13,0,0.27-0.002,0.419-0.004
		c0.809-0.019,1.433-0.299,1.864-0.836c0.024,0.047,0.052,0.092,0.082,0.137c0.575,0.861,1.68,0.869,2.411,0.873h0.261
		c3.043,0,5.721-0.309,8.187-0.945c1.646-0.425,3.305-0.641,4.929-0.641c2.092,0,4.2,0.357,6.271,1.062
		c1.781,0.605,3.71,0.9,5.897,0.9c0.332,0,0.663-0.006,0.997-0.02c1.021-0.037,2.479-0.211,3.377-1.279
		c0.898-1.068,0.816-2.551,0.678-3.572C72.42,85.819,71.334,85.402,70.471,85.402z M68.59,91.363
		c-0.316,0.012-0.634,0.02-0.949,0.02c-1.855,0-3.684-0.221-5.479-0.832c-2.212-0.754-4.442-1.131-6.689-1.131
		c-1.741,0-3.492,0.227-5.254,0.68c-2.572,0.664-5.209,0.906-7.862,0.906c-0.084,0-0.169-0.002-0.253-0.002
		c-1.543-0.008-1.674-0.23-1.076-1.688c0.687-1.673,1.832-2.88,3.546-3.527c0.248-0.097,0.624-0.13,0.602-0.688
		c-0.306-0.059-0.601-0.084-0.884-0.084c-1.551,0-2.776,0.812-3.85,1.977c-0.764,0.825-1.26,1.828-1.574,2.907
		c-0.173,0.599-0.45,0.913-1.156,0.929c-0.139,0.004-0.269,0.006-0.39,0.006c-1.509,0-1.634-0.287-1.173-1.974
		c0.431-1.585,1.209-2.991,2.2-4.289c1.466-1.92,3.391-2.69,5.66-2.69c0.249,0,0.502,0.01,0.759,0.026
		c1.373,0.097,2.698,0.382,4.013,0.751c0.437,0.125,0.858,0.287,1.073,0.762c1.72,3.778,5.129,4.594,8.768,4.897
		c0.716,0.06,1.428,0.089,2.138,0.089c3.036,0,6.016-0.535,8.909-1.539c0.326-0.111,0.589-0.167,0.803-0.167
		c0.611,0,0.819,0.448,0.935,1.284C71.731,90.369,71.019,91.274,68.59,91.363z M110.264,89.763c-0.035-0.051-0.07-0.1-0.098-0.143
		c-1.308-2.365-3.045-4.388-5.163-6.005c-1.215-0.93-3.349-1.26-4.806-1.26c-0.979,0-1.766,0.14-2.35,0.409
		c2.059-3.081,2.897-8.029,1.227-10.661c-0.855,1.599-1.627,3.167-2.664,4.573c-0.387,0.525-0.865,1.019-0.912,1.707
		c-0.145,2.072-0.143,4.139,0.333,6.211c-0.976,1.25-1.336,2.574-1.106,4.133c-1.406-3.751-1.618-7.727-1.426-11.764
		c0.131-2.744,0.75-5.408,1.644-8.002c0.16-0.475,0.262-1.293,0.979-1.105c0.605,0.154,0.324,0.855,0.287,1.338
		c-0.098,1.309-0.213,2.611-0.354,4.337c4.389-7.151,4.053-14.771-1.082-20.705c-0.705-0.813-1.242-0.58-1.861,0.09
		c-1.574,1.701-3.475,2.95-5.639,3.754c-5.472,2.029-11.117,2.508-16.877,1.726c-0.867-0.12-1.689-0.134-2.554,0.007
		c-3.184,0.521-5.68-0.5-7.278-3.397c-0.252-0.454-0.582-0.819-1.019-1.102c-2.141-1.397-4.016-3.069-5.432-5.225
		c-0.187-0.282-0.365-0.737-0.741-0.687c-0.496,0.066-0.433,0.611-0.529,0.98c-1.292,4.908-1.636,9.888-0.771,14.891
		c0.986,5.701,3.477,10.741,7.768,14.625c5.525,5,12.191,6.498,19.5,5.497c1.074-0.146,1.449-0.662,1.48-1.697
		c0.072-2.385-0.023-4.764-0.336-7.117c-0.492-3.728-1.064-7.453-3.951-10.276c-0.248-0.242-0.545-0.548-0.25-0.916
		c0.287-0.358,0.664-0.154,0.967,0.008c2.111,1.138,3.432,2.972,4.305,5.127c1.478,3.636,1.773,7.476,1.597,11.332
		c-0.209,4.511-0.906,8.96-2.205,13.295c-0.147,0.495-0.125,0.837,0.094,1.07c-3.062,0.167-5.1,2.053-6.914,4.002
		c-1.217,1.306-1.249,3.067-0.083,4.601c0.678,0.885,1.582,1.352,2.616,1.352c0.56,0,1.146-0.133,1.793-0.408
		c0.829-0.354,1.547-0.818,2.211-1.35c-0.412,1.177-0.692,2.281-0.793,3.408l-0.004,0.049l-0.001,0.049
		c-0.022,1.574,0.54,2.48,1.017,2.964c0.563,0.569,1.304,0.872,2.142,0.872c0.646,0,1.324-0.182,2.014-0.541
		c1.29-0.672,2.079-1.768,2.681-2.749c0.543-0.886,0.952-1.8,1.313-2.804c0.467,1.625,1.05,3.394,2.304,4.896
		c0.684,0.816,1.645,1.285,2.638,1.285c1.463,0,2.704-0.958,3.166-2.439c0.247-0.791,0.26-1.596,0.25-2.353
		c-0.015-1.015-0.183-1.978-0.421-2.904c0.126,0.132,0.258,0.261,0.396,0.386c0.08,0.073,0.161,0.15,0.244,0.229
		c0.604,0.575,1.429,1.362,2.595,1.362c0.655,0,1.284-0.254,1.867-0.752c2.171-1.862,0.684-4.195,0.193-4.963
		c-0.255-0.401-0.549-0.777-0.803-1.092c-0.43-0.529-0.881-1.027-1.316-1.51c-0.837-0.923-1.626-1.796-2.205-2.792
		c-0.509-0.872-1.198-1.108-0.82-1.108l0.1-0.002c0.6,0,1.239,0.241,1.917,0.496c0.822,0.309,1.753,0.659,2.816,0.659
		c0.201,0,0.402-0.013,0.6-0.038l0.412-0.027l0.454-0.031c0.896-0.062,1.906-0.135,2.412-0.999c0.015-0.024,0.028-0.05,0.041-0.073
		c0.456,0.539,1.081,0.829,1.814,0.829c0.545,0,1.03-0.16,1.421-0.288c0.097-0.031,0.188-0.062,0.276-0.087
		c0.874-0.243,1.226-0.765,1.365-1.158C111.063,90.894,110.543,90.158,110.264,89.763z M71.646,80.779
		c-1.007-0.087-1.703-0.645-1.705-1.793c-0.004-1.134,0.653-1.809,1.778-1.809c1.064,0,1.849,0.535,1.941,1.688
		C73.744,79.88,72.813,80.767,71.646,80.779z M96.813,94.261c0.973,1.677,2.424,2.977,3.635,4.466
		c0.254,0.313,0.504,0.637,0.719,0.976c0.688,1.078,1.242,2.258,0.057,3.274c-0.367,0.315-0.706,0.44-1.021,0.44
		c-0.76,0-1.384-0.725-1.962-1.252c-0.775-0.709-1.375-1.609-2.074-2.408c-0.308-0.349-0.48-1.065-0.968-1.065
		c-0.093,0-0.198,0.026-0.317,0.087c-0.854,0.436-0.156,1.173,0.031,1.729c0.566,1.682,1.152,3.354,1.178,5.151
		c0.008,0.649,0,1.339-0.19,1.95c-0.309,0.988-1.099,1.525-1.926,1.525c-0.577,0-1.176-0.264-1.64-0.817
		c-1.197-1.435-1.707-3.196-2.203-4.954c-0.123-0.436-0.215-0.884-0.342-1.318c-0.098-0.338-0.189-0.731-0.621-0.767
		c-0.023-0.002-0.049-0.003-0.072-0.003c-0.456,0-0.598,0.367-0.715,0.762c-0.442,1.506-0.94,2.991-1.77,4.342
		c-0.562,0.916-1.199,1.769-2.174,2.275c-0.511,0.266-0.987,0.395-1.412,0.395c-1.127,0-1.88-0.9-1.857-2.519
		c0.152-1.716,0.814-3.46,1.549-5.187c0.201-0.479,0.726-1.064,0.074-1.479c-0.134-0.084-0.254-0.118-0.363-0.118
		c-0.417,0-0.688,0.506-0.979,0.795c-1.051,1.032-2.121,2.03-3.502,2.617c-0.441,0.188-0.873,0.307-1.283,0.307
		c-0.581,0-1.119-0.236-1.582-0.84c-0.736-0.969-0.811-2.058,0-2.928c1.795-1.929,3.642-3.62,6.39-3.62
		c0.448,0,0.921,0.046,1.421,0.142c1.508,0.289,3.011,0.465,4.492,0.465c2.953,0,5.825-0.692,8.478-2.547
		c0.189-0.133,0.354-0.229,0.507-0.229C96.52,93.907,96.663,94.005,96.813,94.261z M109.03,91.687
		c-0.398,0.111-0.891,0.326-1.349,0.326c-0.402,0-0.779-0.168-1.045-0.721c-0.352-0.728-0.604-1.502-1.096-2.156
		c-0.791-1.053-1.787-1.785-3.131-1.946c-0.154-0.019-0.331-0.06-0.493-0.06c-0.195,0-0.369,0.059-0.458,0.277
		c-0.199,0.498,0.348,0.529,0.621,0.67c1.035,0.538,1.748,1.356,2.24,2.393c0.723,1.527,0.643,1.675-0.994,1.789
		c-0.303,0.021-0.605,0.043-0.908,0.063c-0.159,0.022-0.314,0.032-0.47,0.032c-1.656,0-3.066-1.155-4.733-1.155
		c-0.028,0-0.059,0-0.088,0.001c-0.004,0-0.008,0-0.012,0c-0.386,0-0.446-0.479-0.578-0.802c-1.123-2.782-0.713-4.406,1.604-6.3
		c0.368-0.303,1.152-0.442,2.057-0.442c1.441,0,3.188,0.358,4.017,0.993c1.996,1.523,3.604,3.408,4.816,5.604
		C109.259,90.667,110.058,91.401,109.03,91.687z M76.692,90.718c-0.67-1.049-0.683-2.284-0.435-3.506
		c0.095-0.453,0.429-0.498,0.789-0.541c0.797-0.09,1.594-0.186,2.56-0.301c0.776-0.219,0.996,0.225,0.877,1.067
		c-0.119,0.846-0.14,1.705-0.279,2.547c-0.107,0.642,0.211,1.664-0.68,1.774C78.502,91.888,77.315,91.701,76.692,90.718z
		 M72.85,79.105c0.021,0.464-0.247,0.758-0.692,0.816c-0.521,0.068-0.887-0.187-0.949-0.709c-0.061-0.528,0.252-0.822,0.777-0.91
		C72.492,78.324,72.826,78.566,72.85,79.105z"/>
</g>
<g>
</g>
<g>
</g>
<g>
</g>
<g>
</g>
<g>
</g>
<g>
</g>
<g>
</g>
<g>
</g>
<g>
</g>
<g>
</g>
<g>
</g>
<g>
</g>
<g>
</g>
<g>
</g>
<g>
</g>
</svg>
